<mxfile host="65bd71144e">
    <diagram id="Z86SHZ22xJm4C7N7x-0L" name="Page-1">
        <mxGraphModel dx="1364" dy="699" grid="1" gridSize="10" guides="1" tooltips="1" connect="1" arrows="1" fold="1" page="1" pageScale="1" pageWidth="827" pageHeight="1169" math="0" shadow="0">
            <root>
                <mxCell id="0"/>
                <mxCell id="1" parent="0"/>
                <mxCell id="14" value="" style="rounded=1;whiteSpace=wrap;html=1;labelBackgroundColor=none;strokeColor=none;strokeWidth=2;fillColor=default;" parent="1" vertex="1">
                    <mxGeometry x="120" y="50" width="660" height="600" as="geometry"/>
                </mxCell>
                <mxCell id="5" value="&lt;b style=&quot;&quot;&gt;&amp;nbsp; Cryptellation System&lt;br&gt;&amp;nbsp;&amp;nbsp;&lt;/b&gt;&lt;span style=&quot;&quot;&gt;[Software System]&lt;/span&gt;" style="rounded=0;whiteSpace=wrap;html=1;fillColor=none;dashed=1;strokeWidth=2;strokeColor=#B3B3B3;align=left;verticalAlign=bottom;" parent="1" vertex="1">
                    <mxGeometry x="160" y="240" width="580" height="360" as="geometry"/>
                </mxCell>
                <mxCell id="13" value="&amp;nbsp; &lt;b&gt;Forward Tests&lt;/b&gt;&lt;br&gt;&amp;nbsp; [Microservice]" style="rounded=0;whiteSpace=wrap;html=1;labelBackgroundColor=none;strokeColor=#DAE8FC;strokeWidth=2;fillColor=none;verticalAlign=bottom;align=left;" parent="1" vertex="1">
                    <mxGeometry x="180" y="260" width="540" height="140" as="geometry"/>
                </mxCell>
                <mxCell id="2" value="&lt;b&gt;Forward Tests&lt;/b&gt;&lt;br&gt;[Service]&lt;br&gt;Provide an entire environment for users to execute forward tests." style="rounded=1;whiteSpace=wrap;html=1;fillColor=#dae8fc;strokeColor=#6c8ebf;" parent="1" vertex="1">
                    <mxGeometry x="200" y="280" width="200" height="80" as="geometry"/>
                </mxCell>
                <mxCell id="3" value="&lt;b&gt;Redis&lt;/b&gt;&lt;br&gt;[In-Memory Database]&lt;br&gt;Stores backtests informations" style="shape=cylinder3;whiteSpace=wrap;html=1;boundedLbl=1;backgroundOutline=1;size=7;fillColor=#dae8fc;strokeColor=#6c8ebf;" parent="1" vertex="1">
                    <mxGeometry x="530" y="280" width="160" height="80" as="geometry"/>
                </mxCell>
                <mxCell id="10" value="&lt;font face=&quot;helvetica&quot;&gt;Reads from&lt;br&gt;Writes to&lt;br&gt;[Redis]&lt;br&gt;&lt;/font&gt;" style="endArrow=none;dashed=1;html=1;exitX=0;exitY=0.5;exitDx=0;exitDy=0;entryX=1;entryY=0.5;entryDx=0;entryDy=0;edgeStyle=orthogonalEdgeStyle;startArrow=classic;startFill=1;exitPerimeter=0;" parent="1" source="3" target="2" edge="1">
                    <mxGeometry x="0.0769" width="50" height="50" relative="1" as="geometry">
                        <mxPoint x="360" y="500" as="sourcePoint"/>
                        <mxPoint x="360" y="370" as="targetPoint"/>
                        <mxPoint as="offset"/>
                    </mxGeometry>
                </mxCell>
                <mxCell id="11" value="&lt;b style=&quot;color: rgb(0 , 0 , 0) ; font-family: &amp;#34;helvetica&amp;#34; ; font-size: 12px ; font-style: normal ; letter-spacing: normal ; text-align: center ; text-indent: 0px ; text-transform: none ; word-spacing: 0px&quot;&gt;User&lt;/b&gt;&lt;br style=&quot;color: rgb(0 , 0 , 0) ; font-family: &amp;#34;helvetica&amp;#34; ; font-size: 12px ; font-style: normal ; font-weight: 400 ; letter-spacing: normal ; text-align: center ; text-indent: 0px ; text-transform: none ; word-spacing: 0px&quot;&gt;&lt;span style=&quot;color: rgb(0 , 0 , 0) ; font-family: &amp;#34;helvetica&amp;#34; ; font-size: 12px ; font-style: normal ; font-weight: 400 ; letter-spacing: normal ; text-align: center ; text-indent: 0px ; text-transform: none ; word-spacing: 0px ; display: inline ; float: none&quot;&gt;[Application]&lt;/span&gt;&lt;br style=&quot;color: rgb(0 , 0 , 0) ; font-family: &amp;#34;helvetica&amp;#34; ; font-size: 12px ; font-style: normal ; font-weight: 400 ; letter-spacing: normal ; text-align: center ; text-indent: 0px ; text-transform: none ; word-spacing: 0px&quot;&gt;&lt;span style=&quot;color: rgb(0 , 0 , 0) ; font-family: &amp;#34;helvetica&amp;#34; ; font-size: 12px ; font-style: normal ; font-weight: 400 ; letter-spacing: normal ; text-align: center ; text-indent: 0px ; text-transform: none ; word-spacing: 0px ; display: inline ; float: none&quot;&gt;Application that a user will run to execute its strategies.&lt;/span&gt;" style="rounded=1;whiteSpace=wrap;html=1;strokeColor=#d6b656;strokeWidth=1;fillColor=#fff2cc;" parent="1" vertex="1">
                    <mxGeometry x="200" y="80" width="200" height="80" as="geometry"/>
                </mxCell>
                <mxCell id="12" value="&lt;font face=&quot;helvetica&quot;&gt;Execute orders&lt;br&gt;[gRPC]&lt;br&gt;&lt;/font&gt;" style="endArrow=none;dashed=1;html=1;entryX=0.5;entryY=1;entryDx=0;entryDy=0;edgeStyle=orthogonalEdgeStyle;startArrow=classic;startFill=1;" parent="1" target="11" edge="1">
                    <mxGeometry x="0.3333" width="50" height="50" relative="1" as="geometry">
                        <mxPoint x="300" y="280" as="sourcePoint"/>
                        <mxPoint x="410" y="330" as="targetPoint"/>
                        <mxPoint as="offset"/>
                    </mxGeometry>
                </mxCell>
                <mxCell id="17" value="&lt;b&gt;NATS&lt;/b&gt;&lt;br&gt;[Message Broker Service]&lt;br&gt;Publish/Receive messages asynchronously" style="shape=cylinder3;whiteSpace=wrap;html=1;boundedLbl=1;backgroundOutline=1;size=7;fillColor=#dae8fc;strokeColor=#6c8ebf;" vertex="1" parent="1">
                    <mxGeometry x="220" y="460" width="160" height="80" as="geometry"/>
                </mxCell>
                <mxCell id="18" value="&lt;font face=&quot;helvetica&quot;&gt;Deliver new ticks&lt;br&gt;[NATS]&lt;br&gt;&lt;/font&gt;" style="endArrow=none;dashed=1;html=1;exitX=0.75;exitY=1;exitDx=0;exitDy=0;edgeStyle=orthogonalEdgeStyle;startArrow=classic;startFill=1;entryX=0.5;entryY=0;entryDx=0;entryDy=0;entryPerimeter=0;" edge="1" parent="1" source="2" target="17">
                    <mxGeometry x="0.6" y="-50" width="50" height="50" relative="1" as="geometry">
                        <mxPoint x="540" y="330" as="sourcePoint"/>
                        <mxPoint x="410" y="330" as="targetPoint"/>
                        <mxPoint as="offset"/>
                        <Array as="points">
                            <mxPoint x="350" y="420"/>
                            <mxPoint x="300" y="420"/>
                        </Array>
                    </mxGeometry>
                </mxCell>
            </root>
        </mxGraphModel>
    </diagram>
</mxfile>
